<svg xmlns="http://www.w3.org/2000/svg" width="55" height="54" fill="none" viewBox="0 0 55 54">
  <g clip-path="url(#a)">
    <path fill="#ffd817" d="M53.91 16.361c-.125-2.755-.584-4.653-1.244-6.293a12.62 12.62 0 0 0-3.088-4.6 13.185 13.185 0 0 0-4.726-2.99c-1.7-.637-3.643-1.083-6.48-1.207-2.858-.13-3.766-.163-11.018-.163-7.252 0-8.16.032-11.008.153-2.837.12-4.791.566-6.48 1.207a13.066 13.066 0 0 0-4.736 3 12.732 12.732 0 0 0-3.077 4.59C1.397 11.707.937 13.594.809 16.35.675 19.127.642 20.01.642 27.052l.157 10.692c.123 2.755.583 4.653 1.243 6.293a12.757 12.757 0 0 0 3.088 4.6 13.183 13.183 0 0 0 4.726 2.989c1.699.637 3.642 1.084 6.479 1.208 2.848.12 3.756.152 11.008.152l11.008-.152c2.837-.12 4.79-.567 6.48-1.208a13.717 13.717 0 0 0 4.733-2.993 13.246 13.246 0 0 0 3.084-4.596c.656-1.65 1.115-3.538 1.243-6.293.124-2.766.157-3.648.157-10.692l-.135-10.691h-.004Zm-4.81 21.18c-.117 2.533-.554 3.904-.919 4.814a8.59 8.59 0 0 1-2 2.983 8.896 8.896 0 0 1-3.072 1.943c-.94.354-2.359.779-4.955.892-2.819.12-3.66.152-10.79.152-7.128 0-7.98-.028-10.788-.152-2.607-.11-4.019-.538-4.956-.892a8.166 8.166 0 0 1-3.066-1.937 8.115 8.115 0 0 1-1.994-2.979c-.365-.913-.803-2.291-.92-4.812-.123-2.738-.156-3.56-.156-10.48l.157-10.478c.113-2.532.554-3.903.919-4.813a7.788 7.788 0 0 1 2.005-2.978 8.373 8.373 0 0 1 3.066-1.937c.941-.354 2.36-.78 4.956-.893 2.818-.12 3.664-.152 10.789-.152 7.124 0 7.981.032 10.789.152 2.607.114 4.018.539 4.955.893a8.166 8.166 0 0 1 3.067 1.937 8.116 8.116 0 0 1 1.994 2.978c.365.914.802 2.291.919 4.813.124 2.737.157 3.555.157 10.479L49.1 37.542ZM27.35 13.727c-7.577 0-13.72 5.971-13.72 13.326 0 7.356 6.147 13.327 13.72 13.327s13.72-5.971 13.72-13.327c0-7.355-6.147-13.326-13.72-13.326Zm0 21.97c-4.915 0-8.9-3.87-8.9-8.644 0-4.773 3.985-8.644 8.9-8.644 4.915 0 8.9 3.87 8.9 8.644s-3.985 8.645-8.9 8.645ZM44.82 13.2c0 .825-.339 1.617-.94 2.2a3.254 3.254 0 0 1-2.266.912c-1.772 0-3.205-1.391-3.205-3.112 0-1.722 1.433-3.113 3.205-3.113s3.205 1.391 3.205 3.113Z"/>
  </g>
  <defs>
    <clipPath id="a">
      <path fill="#ffd817" d="M0 0h54.693v53.12H0z" transform="translate(0 .488)"/>
    </clipPath>
  </defs>
</svg>
